<?xml version="1.0" encoding="UTF-8"?>
<svg xmlns="http://www.w3.org/2000/svg" xmlns:xlink="http://www.w3.org/1999/xlink" width="300px" height="100px" viewBox="0 0 300 100" version="1.1">
<defs>
<linearGradient id="linear0" gradientUnits="userSpaceOnUse" x1="0" y1="0" x2="1" y2="0" gradientTransform="matrix(199.387713,15.207654,-92.976018,32.612919,40,32.007813)">
<stop offset="0" style="stop-color:rgb(47.058824%,19.215686%,57.254902%);stop-opacity:1;"/>
<stop offset="1" style="stop-color:rgb(34.901961%,73.72549%,78.431373%);stop-opacity:1;"/>
</linearGradient>
</defs>
<g id="surface1">
<rect x="0" y="0" width="300" height="100" style="fill:rgb(100%,100%,100%);fill-opacity:1;stroke:none;"/>
<path style=" stroke:none;fill-rule:nonzero;fill:url(#linear0);" d="M 82.730469 67.992188 L 78.207031 59.730469 L 49.730469 59.730469 L 45.242188 67.992188 L 40 67.992188 L 60.972656 32.007812 L 66.96875 32.007812 L 87.976562 67.992188 Z M 51.992188 55.996094 L 75.980469 55.996094 L 63.988281 34.992188 Z M 93.972656 67.992188 L 93.972656 32.007812 L 98.460938 32.007812 L 98.460938 67.992188 Z M 134.40625 67.992188 L 107.472656 67.992188 L 107.472656 32.007812 L 137.457031 32.007812 C 139.71875 32.007812 141.535156 32.191406 142.90625 32.558594 C 144.277344 32.921875 145.328125 33.460938 146.058594 34.167969 C 146.8125 34.875 147.316406 35.765625 147.566406 36.839844 C 147.816406 37.890625 147.945312 39.101562 147.945312 40.472656 C 147.945312 41.480469 147.851562 42.359375 147.667969 43.113281 C 147.511719 43.890625 147.28125 44.5625 146.984375 45.132812 C 146.710938 45.683594 146.390625 46.152344 146.023438 46.539062 C 145.683594 46.925781 145.316406 47.246094 144.929688 47.5 C 144.058594 48.09375 143.066406 48.421875 141.945312 48.492188 C 143.339844 48.5625 144.585938 48.902344 145.683594 49.519531 C 146.160156 49.792969 146.617188 50.125 147.054688 50.515625 C 147.511719 50.925781 147.910156 51.417969 148.253906 51.988281 C 148.59375 52.582031 148.878906 53.265625 149.109375 54.042969 C 149.335938 54.84375 149.453125 55.757812 149.453125 56.785156 C 149.453125 58.042969 149.382812 59.183594 149.246094 60.210938 C 149.132812 61.261719 148.902344 62.199219 148.5625 63.023438 C 148.195312 63.84375 147.667969 64.5625 146.984375 65.179688 C 146.320312 65.820312 145.429688 66.347656 144.3125 66.757812 C 143.191406 67.167969 141.832031 67.476562 140.234375 67.683594 C 138.613281 67.886719 136.667969 67.992188 134.40625 67.992188 Z M 111.960938 64.222656 L 132.933594 64.222656 C 134.671875 64.222656 136.179688 64.199219 137.457031 64.152344 C 138.738281 64.105469 139.824219 63.992188 140.714844 63.808594 C 141.605469 63.628906 142.324219 63.363281 142.871094 63.023438 C 143.421875 62.679688 143.84375 62.234375 144.140625 61.683594 C 144.460938 61.136719 144.664062 60.464844 144.757812 59.664062 C 144.871094 58.863281 144.929688 57.90625 144.929688 56.785156 C 144.929688 55.917969 144.871094 55.152344 144.757812 54.488281 C 144.664062 53.847656 144.460938 53.300781 144.140625 52.84375 C 143.84375 52.410156 143.421875 52.054688 142.871094 51.78125 C 142.324219 51.507812 141.605469 51.289062 140.714844 51.128906 C 139.824219 50.972656 138.738281 50.867188 137.457031 50.824219 C 136.179688 50.777344 134.671875 50.753906 132.933594 50.753906 L 111.960938 50.753906 Z M 111.960938 46.984375 L 132.933594 46.984375 C 134.464844 46.984375 135.777344 46.960938 136.875 46.914062 C 137.996094 46.847656 138.941406 46.722656 139.71875 46.539062 C 140.496094 46.378906 141.125 46.140625 141.605469 45.820312 C 142.085938 45.523438 142.460938 45.132812 142.734375 44.652344 C 143.007812 44.175781 143.191406 43.59375 143.285156 42.90625 C 143.398438 42.222656 143.453125 41.410156 143.453125 40.472656 C 143.453125 39.46875 143.339844 38.65625 143.113281 38.039062 C 142.882812 37.421875 142.496094 36.945312 141.945312 36.601562 C 141.375 36.257812 140.609375 36.03125 139.652344 35.914062 C 138.691406 35.800781 137.457031 35.746094 135.949219 35.746094 L 111.960938 35.746094 Z M 156.921875 67.992188 L 156.921875 32.007812 L 183.960938 32.007812 C 186.199219 32.007812 188.082031 32.101562 189.613281 32.285156 C 191.167969 32.488281 192.433594 32.785156 193.417969 33.175781 C 194.421875 33.5625 195.199219 34.042969 195.746094 34.613281 C 196.273438 35.207031 196.660156 35.894531 196.914062 36.667969 C 197.164062 37.445312 197.3125 38.316406 197.359375 39.273438 C 197.402344 40.257812 197.425781 41.332031 197.425781 42.496094 C 197.425781 43.707031 197.390625 44.824219 197.324219 45.855469 C 197.277344 46.90625 197.09375 47.839844 196.777344 48.664062 C 196.480469 49.507812 196 50.238281 195.335938 50.855469 C 194.675781 51.496094 193.726562 52.035156 192.492188 52.46875 C 191.28125 52.878906 189.726562 53.199219 187.832031 53.425781 C 185.957031 53.632812 183.652344 53.734375 180.910156 53.734375 L 161.445312 53.734375 L 161.445312 67.992188 Z M 161.445312 35.746094 L 161.445312 50 L 180.910156 50 C 182.898438 50 184.578125 49.964844 185.945312 49.898438 C 187.316406 49.828125 188.449219 49.691406 189.339844 49.484375 C 190.230469 49.304688 190.914062 49.039062 191.394531 48.699219 C 191.875 48.355469 192.230469 47.910156 192.457031 47.363281 C 192.6875 46.789062 192.824219 46.105469 192.871094 45.304688 C 192.890625 44.527344 192.902344 43.59375 192.902344 42.496094 C 192.902344 41.488281 192.890625 40.609375 192.871094 39.855469 C 192.824219 39.125 192.6875 38.507812 192.457031 38.007812 C 192.230469 37.527344 191.875 37.136719 191.394531 36.839844 C 190.914062 36.542969 190.230469 36.304688 189.339844 36.121094 C 188.449219 35.960938 187.316406 35.859375 185.945312 35.8125 C 184.578125 35.765625 182.898438 35.746094 180.910156 35.746094 Z M 229.605469 67.992188 L 207.914062 34.992188 L 207.914062 67.992188 L 203.421875 67.992188 L 203.421875 32.007812 L 210.894531 32.007812 L 231.867188 63.5 L 252.839844 32.007812 L 260 32.007812 L 260 67.992188 L 255.511719 67.992188 L 255.511719 35.503906 L 234.128906 67.992188 Z M 229.605469 67.992188 "/>
</g>
</svg>
